{
    "frames": [
        {
            "media_type": "video",
            "stream_index": 0,
            "key_frame": 1,
            "pkt_pts": 0,
            "pkt_pts_time": "0.000000",
            "pkt_dts": 0,
            "pkt_dts_time": "0.000000",
            "best_effort_timestamp": 0,
            "best_effort_timestamp_time": "0.000000",
            "pkt_duration": 90000,
            "pkt_duration_time": "1.000000",
            "pkt_pos": "812",
            "pkt_size": "821",
            "width": 128,
            "height": 128,
            "pix_fmt": "yuv420p",
            "pict_type": "I",
            "coded_picture_number": 0,
            "display_picture_number": 0,
            "interlaced_frame": 0,
            "top_field_first": 0,
            "repeat_pict": 0
        },
        {
            "media_type": "video",
            "stream_index": 0,
            "key_frame": 1,
            "pkt_pts": 90000,
            "pkt_pts_time": "1.000000",
            "pkt_dts": 90000,
            "pkt_dts_time": "1.000000",
            "best_effort_timestamp": 90000,
            "best_effort_timestamp_time": "1.000000",
            "pkt_duration": 90000,
            "pkt_duration_time": "1.000000",
            "pkt_pos": "1633",
            "pkt_size": "282",
            "width": 128,
            "height": 128,
            "pix_fmt": "yuv420p",
            "pict_type": "I",
            "coded_picture_number": 1,
            "display_picture_number": 0,
            "interlaced_frame": 0,
            "top_field_first": 0,
            "repeat_pict": 0
        },
        {
            "media_type": "video",
            "stream_index": 0,
            "key_frame": 1,
            "pkt_pts": 180000,
            "pkt_pts_time": "2.000000",
            "pkt_dts": 180000,
            "pkt_dts_time": "2.000000",
            "best_effort_timestamp": 180000,
            "best_effort_timestamp_time": "2.000000",
            "pkt_duration": 90000,
            "pkt_duration_time": "1.000000",
            "pkt_pos": "1915",
            "pkt_size": "282",
            "width": 128,
            "height": 128,
            "pix_fmt": "yuv420p",
            "pict_type": "I",
            "coded_picture_number": 2,
            "display_picture_number": 0,
            "interlaced_frame": 0,
            "top_field_first": 0,
            "repeat_pict": 0
        },
        {
            "media_type": "video",
            "stream_index": 0,
            "key_frame": 1,
            "pkt_pts": 270000,
            "pkt_pts_time": "3.000000",
            "pkt_dts": 270000,
            "pkt_dts_time": "3.000000",
            "best_effort_timestamp": 270000,
            "best_effort_timestamp_time": "3.000000",
            "pkt_duration": 90000,
            "pkt_duration_time": "1.000000",
            "pkt_pos": "2197",
            "pkt_size": "282",
            "width": 128,
            "height": 128,
            "pix_fmt": "yuv420p",
            "pict_type": "I",
            "coded_picture_number": 3,
            "display_picture_number": 0,
            "interlaced_frame": 0,
            "top_field_first": 0,
            "repeat_pict": 0
        },
        {
            "media_type": "video",
            "stream_index": 0,
            "key_frame": 1,
            "pkt_pts": 360000,
            "pkt_pts_time": "4.000000",
            "pkt_dts": 360000,
            "pkt_dts_time": "4.000000",
            "best_effort_timestamp": 360000,
            "best_effort_timestamp_time": "4.000000",
            "pkt_duration": 90000,
            "pkt_duration_time": "1.000000",
            "pkt_pos": "2479",
            "pkt_size": "282",
            "width": 128,
            "height": 128,
            "pix_fmt": "yuv420p",
            "pict_type": "I",
            "coded_picture_number": 4,
            "display_picture_number": 0,
            "interlaced_frame": 0,
            "top_field_first": 0,
            "repeat_pict": 0
        }
    ]
}
